<svg xmlns="http://www.w3.org/2000/svg" xmlns:xlink="http://www.w3.org/1999/xlink" viewBox="0 0 1160 844" style="fill: rgb(237, 255, 204);" original_string_length="38733"><path d="M383 110.453c0 1.385.679 3.299 3.563 10.047.706 1.65 1.602 4.35 1.991 6 .39 1.65 1.691 4.35 2.892 6 2.087 2.869 13.554 25.688 13.554 26.974 0 .987 16.545 35.584 19.859 41.526 1.074 1.925 2.506 4.977 3.182 6.783s2.641 5.631 4.367 8.5 4.198 7.692 5.495 10.717 3.199 6.573 4.228 7.885 1.869 3.008 1.869 3.77c0 .761 1.219 3.288 2.708 5.615 1.489 2.326 4.35 7.38 6.358 11.23 4.465 8.564 13.039 24.257 19.123 35 2.492 4.4 6.116 10.925 8.055 14.5 7.907 14.585 20.183 35.63 21.912 37.564 1.014 1.136 1.844 2.728 1.844 3.538 0 .811 1.302 3.032 2.892 4.936 2.786 3.334 2.964 3.397 4.831 1.71 1.643-1.485 3.109-1.652 9.641-1.1 4.237.358 7.929 1.017 8.206 1.465s-.408 1.618-1.52 2.601-3.452 3.249-5.197 5.036c-1.746 1.788-4.002 3.25-5.014 3.25-2.87 0-2.215 2.923 2.127 9.5 7.131 10.802 6.642 10.362 8.552 7.711.907-1.259 4.006-3.618 6.886-5.244 10.139-5.722 9.361-2.188 10.007-45.467.312-20.9.572-44.622.578-52.715L546 263.07l3-3.417c3.583-4.081 4.001-7.653.894-7.653-1.158 0-3.48-1.157-5.16-2.57l-3.055-2.571-3.026 3.027c-2.984 2.984-3.032 3.196-3.425 15.313-.373 11.538-1.164 14.576-3.43 13.176-.439-.271-.798-6.204-.797-13.184V252.5l4.58-5.834 4.579-5.833-2.265-6.417c-1.246-3.529-2.814-6.416-3.485-6.416-.672 0-3.081 1.554-5.354 3.454-2.335 1.95-4.77 3.209-5.595 2.893-2.204-.846-1.805-1.837 2.128-5.291 2.164-1.9 3.367-3.727 3.031-4.603-.841-2.191-2.848-1.767-7.192 1.519-4.984 3.771-6.632 3.763-9.839-.049-3.274-3.89-3.25-5.23.151-8.383 3.418-3.169 4.515-3.167 9.95.019 5.837 3.42 11.686 3.15 12.067-.559.403-3.913-3.799-10.209-8.572-12.841-4.809-2.653-7.185-1.828-7.185 2.495 0 2.791-2.766 4.292-4.132 2.242-.511-.768-.739-2.971-.506-4.896.611-5.043-1.211-23.556-2.953-30-3.072-11.368-5.078-12.821-9.422-6.824L498 171.3v44.071l7.678 13.564c4.223 7.461 10.073 17.41 13 22.11 5.48 8.798 6.068 10.376 4.282 11.48-1.245.769-3.938-2.502-9.865-11.98-4.033-6.449-5.7-9.317-11.361-19.545-1.066-1.925-3.534-6.145-5.485-9.377l-3.548-5.877.559-23.257c.527-21.911.445-23.445-1.407-26.491-1.619-2.662-1.78-3.769-.91-6.265 1.349-3.869 1.377-3.733-.769-3.733-1.915 0-4.646 2.634-7.506 7.24-2.629 4.235-11.455 10.764-14.508 10.732-1.463-.015-4.42-1.36-6.572-2.988-4.795-3.628-6.768-2.655-6.424 3.169.279 4.735-1.33 6.784-3.751 4.774-1.417-1.175-1.577-2.637-1.044-9.564l.628-8.176-4.619-8.844c-4.853-9.291-8.79-14.343-11.177-14.343-.784 0-4.525 1.436-8.313 3.191L420 144.383v12.444l6.134 5.125c3.373 2.819 6.636 4.96 7.25 4.758.637-.21 1.331-3.769 1.616-8.289.447-7.088.71-7.921 2.5-7.921 1.889 0 2 .666 1.998 11.987-.002 14.734-.545 15.118-10.287 7.268-3.691-2.974-7.915-6.19-9.386-7.147-3.535-2.299-4.814-6.316-4.128-12.965.585-5.661-.072-11.109-1.635-13.579-.754-1.19-1.179-1.211-2.486-.127-1.239 1.028-1.576 3.408-1.576 11.126 0 5.401-.427 10.083-.95 10.406-1.993 1.232-3.05-3.734-3.05-14.332 0-12.394-.795-14.137-6.449-14.137-3.439 0-6.196-2.148-5.078-3.956 1.292-2.091 6.423-1.074 9.874 1.956 3.856 3.385 6.653 3.886 6.653 1.191 0-3.273-2.26-5.211-18.946-16.25-4.789-3.168-9.054-3.869-9.054-1.488m8.46 39.789c-.938 2.892-2.101 5.686-2.583 6.208-2.557 2.77-.208 15.719 5.538 30.518 2.022 5.207 3.543 10.593 3.38 11.968-.406 3.443-3.042 4.513-19.045 7.733-15.788 3.176-15.581 2.942-11.25 12.735 1.375 3.109 2.5 6.566 2.5 7.681 0 3.024 6.591 18.372 10.543 24.549 1.901 2.973 3.457 6.314 3.457 7.425 0 2.684-3.264 8.968-5.894 11.346-3.212 2.905-2.583 5.62 3.144 13.561 12.916 17.909 13.832 20.791 8.47 26.643-4.451 4.856-8.526 5.441-29.049 4.17-18.809-1.165-18.015-1.377-22.079 5.889-1.992 3.563-2.522 3.867-7.54 4.332-11.939 1.106-4.647 4.45 11.948 5.479 10.112.627 16.1 1.551 30.5 4.705 4.95 1.084 11.475 2.344 14.5 2.8 7.401 1.115 15.247 3.096 29 7.322 22.444 6.895 35.513 12.538 52 22.451 6.566 3.947 10.869 7.027 25.493 18.243 7.623 5.846 17.251 14.031 20.453 17.388 3.515 3.684 5.43 4.431 6.581 2.568.647-1.046.09-2.015-5.436-9.456-1.634-2.2-5.635-8.725-8.892-14.5s-6.944-12.3-8.195-14.5c-14.789-26.02-21.502-38.81-39.104-74.5-16.485-33.426-22.9-46.698-22.9-47.381 0-.548-10.994-25.389-13.33-30.119-1.795-3.635-13.361-31.13-20.612-49-8.169-20.131-8.359-20.568-9.149-21.056-.409-.253-1.511 1.906-2.449 4.798m486.04 10.876c-1.1 1.053-4.135 3.762-6.743 6.02s-5.718 5.737-6.91 7.733c-2.812 4.713-6.896 9.129-8.442 9.129-.671 0-3.521-1.193-6.332-2.652-4.346-2.255-5.49-2.479-7.644-1.498-1.393.635-3.193 2.616-3.999 4.402-.807 1.787-3.167 5.948-5.246 9.248-4.172 6.623-4.327 6.673-13.248 4.23-9.101-2.492-10.128-1.905-15.507 8.859-4.355 8.718-4.596 9.594-3.42 12.433.696 1.68 2.074 3.487 3.062 4.016 1.029.55 13.825.962 29.909.962h28.111l2.454 2.455c2.028 2.027 2.455 3.438 2.455 8.115 0 5.384.208 5.851 4.25 9.546 2.337 2.136 4.69 3.737 5.228 3.558 1.665-.555 3.319-8.078 4.054-18.44.817-11.521.263-14.234-2.908-14.234-1.233 0-3.115-.661-4.183-1.468-1.61-1.218-7.351-1.474-33.632-1.5-22.801-.023-31.891-.355-32.403-1.184-1.793-2.901 2.523-3.485 24.787-3.354 42.584.252 41.179.151 44.202 3.174 1.585 1.585 3.021 2.296 3.537 1.75.478-.505 1.026-9.468 1.218-19.918l.35-19-3.25.325c-2.374.238-3.25-.081-3.25-1.182 0-1.63 3.389-3.139 4.922-2.191 1.12.692 2.146-.766 3.743-5.321 2.051-5.85-.873-8.122-5.165-4.013m-253.194 26.666c-5.944 5.931-16.537 16.752-23.541 24.048-12.304 12.814-12.849 13.243-16.065 12.64-5.26-.987-6.472 1.423-2.7 5.371 3.666 3.836 3.687 4.389.331 8.79-2.403 3.15-2.732 4.615-3.293 14.683l-.624 11.184-6.457 8.314c-3.551 4.573-7.058 9.161-7.792 10.195-.95 1.338-1.498 7.503-1.901 21.393l-.565 19.514 3.15 2.765c5.104 4.478 4 11.402-2.049 12.86-3.651.88-8.363-3.545-7.293-6.847 1.094-3.375 2.575-35.438 1.949-42.194l-.556-6 5.364-6.5c12.046-14.597 11.736-13.9 11.732-26.4-.003-9.301-.325-11.627-1.985-14.35-2.041-3.348-2.772-3.748-4.537-2.485-1.742 1.248-7.474 8.963-7.474 10.061 0 .571 1.35 1.999 3 3.174 5.891 4.194 2.518 13.445-4.487 12.308-2.434-.395-3.799-.022-5.257 1.436-1.755 1.755-2.04 3.91-2.626 19.862-.362 9.842-.675 27.119-.696 38.394s-.303 27.475-.625 36l-.587 15.5-3.184 3c-3.166 2.983-8.08 6.078-14.288 8.998-1.788.841-3.25 1.801-3.25 2.135 0 1.559 11.404 18.367 12.462 18.367.66 0 2.714-2.363 4.564-5.25s5.188-7.579 7.418-10.426 6.531-8.588 9.556-12.759c3.025-4.17 6.737-9.215 8.25-11.211 3.037-4.008 2.915-2.231 3.058-44.597.05-14.84-.072-15.877-2.127-18.065-2.891-3.076-2.781-7.183.274-10.237 2.994-2.995 4.496-3.068 7.91-.382 3.09 2.43 3.467 6.351.885 9.201-1.558 1.72-1.805 5.181-2.25 31.583l-.5 29.652-4.5 6.58c-2.475 3.619-7.425 10.471-11 15.225-3.575 4.755-7.85 10.527-9.5 12.828-1.65 2.3-3.45 4.797-4 5.549-1.275 1.742.931 3.272 4.75 3.294 1.741.009 2.75.552 2.75 1.48 0 2.501-3.238 3.494-7.946 2.436-5.136-1.154-5.665-.831-3.895 2.379 4.222 7.655 8.126 13.668 9.939 15.309 1.942 1.757 2.124 1.766 3.034.14.66-1.18 2.212-1.729 4.883-1.729 2.847 0 4.197-.528 4.95-1.934.578-1.081 1.035-8.401 1.035-16.594v-14.66l5.5-7.531c3.692-5.055 5.5-8.492 5.5-10.452 0-3.37 3.9-7.829 6.849-7.829 2.153 0 8.151 5.135 8.151 6.978 0 2.435-5.795 7.022-8.873 7.022-2.583 0-3.707.955-7.681 6.524l-4.656 6.524-.381 17.226c-.438 19.791-.409 19.726-9.1 19.726-4.514 0-5.309.279-5.309 1.865 0 1.026.9 3.009 2 4.408 1.1 1.398 2 2.964 2 3.48 0 .515.9 1.752 2 2.747s2 2.251 2 2.79c0 2.167 12.411 23.71 13.659 23.71.927 0 1.341-1.422 1.341-4.61 0-3.593 1.319-7.327 5.973-16.915 9.426-19.418 12.492-23.767 14.482-20.547.316.51-3.074 8.273-7.533 17.25-7.571 15.241-8.071 16.639-7.557 21.114.448 3.898.186 5.157-1.407 6.75-1.077 1.077-1.958 2.591-1.958 3.365s2.747 6.287 6.105 12.25c6.708 11.914 19.908 37.506 21.977 42.609 1.694 4.179 6.981 12.945 8.583 14.234 1.514 1.217 7.334 12.872 7.338 14.694.001.718 1.576 3.916 3.5 7.106s3.497 6.066 3.497 6.392 1.8 3.442 4 6.925c2.2 3.484 4 6.752 4 7.262 0 .511 1.575 3.715 3.5 7.121s3.5 6.583 3.5 7.061c0 1.67 4.142 3.067 7.142 2.408 2.599-.571 2.94-1.007 2.418-3.087-.335-1.333-.144-3.29.423-4.35.972-1.817-1.168-10.293-4.807-19.032-.572-1.375-1.938-5.425-3.035-9-2.562-8.348-8.096-23.985-9.289-26.25-.788-1.496-2.437-1.75-11.352-1.75-9.162 0-10.551-.227-11.43-1.869-.55-1.027-.715-2.152-.368-2.5 1.004-1.004 20.906-.731 23.685.326 1.384.526 3.197 2.272 4.028 3.879 1.765 3.413 8.104 21.423 10.089 28.664 4.115 15.014 6.765 20.982 11.14 25.091 4.923 4.623 5.241 6.014 2.245 9.823-2.023 2.572-2.038 2.764-.345 4.635.971 1.073 2.133 1.951 2.582 1.951s2.808 1.405 5.244 3.121c2.435 1.717 4.924 2.816 5.529 2.441.73-.451 1.101-6.315 1.101-17.417v-16.737l-7.16-6.411-7.16-6.41.876-44.544c.482-24.498.897-49.268.922-55.043.069-15.406-.361-14.78 12.432-18.085 9.283-2.399 11.09-2.416 11.09-.104 0 1.725-4.381 3.501-14.209 5.762-1.49.343-3.121 1.142-3.625 1.775-.504.634-1.204 20.727-1.555 44.652-.352 23.925-.908 47.775-1.235 53l-.595 9.5 7.61 7.73 7.609 7.73v16.461c0 9.895-.399 16.707-1 17.079-2.493 1.541-.602 3.806 5.478 6.563 8.663 3.928 10.516 3.873 10.544-.313.012-1.788.895-7.202 1.963-12.033l1.942-8.783-8.109-17.217-8.11-17.217.222-43.222c.195-37.968.031-43.496-1.354-45.473-2.398-3.423-1.912-6.345 1.538-9.247 2.184-1.839 3.751-2.427 5.25-1.971 6.17 1.876 7.446 7.537 2.796 12.403l-2.84 2.971-.609 36.27c-.798 47.567-.927 45.642 3.688 55.269 2.11 4.4 4.406 9.599 5.104 11.553s2.623 6.235 4.278 9.514l3.009 5.96-2.323 10.987c-1.278 6.042-2.612 11.728-2.964 12.635-1.092 2.817 1.459 3.19 9.372 1.369 12.205-2.807 12.127-2.754 12.112-8.247-.019-6.941-7.249-21.615-12.844-26.068-3.353-2.669-4.143-3.926-4.143-6.595 0-6.137 6.805-8.881 10.961-4.419 2.29 2.457 2.585 4.963.904 7.656-.881 1.41-.778 2.473.456 4.737 1.586 2.906 4.611 9.206 7.162 14.916.738 1.651 1.622 4.669 1.966 6.707 1.207 7.157 6.295.378 5.298-7.058-.561-4.182.577-7.147 2.744-7.147 2.206 0 2.84-1.972 1.225-3.813-2.909-3.317-3.008-5.985-.324-8.67 2.946-2.946 5.685-3.175 9.688-.811 2.441 1.442 3.407 1.52 6.226.5 1.835-.663 4.814-1.206 6.621-1.206 1.806 0 5.824-.637 8.929-1.417 3.104-.779 8.569-1.719 12.144-2.09s8.327-1.066 10.561-1.545 8.758-1.33 14.5-1.89c12.582-1.228 17.517-2.522 18.41-4.828.368-.951.625-9.614.571-19.249-.073-12.835.242-17.958 1.179-19.157.996-1.274 3.627-1.737 11.875-2.087 9.178-.389 11.026-.767 13.811-2.826 3.063-2.265 3.348-2.301 6.033-.76 3.314 1.902 4.195 1.492 6.51-3.025s1.257-5.439-9.372-8.178c-7.48-1.928-9.941-2.095-22-1.493-7.468.373-14.253.868-15.078 1.101-1.267.357-1.498 3.409-1.485 19.685.014 18.426.116 19.426 2.35 23.041 2.779 4.495 2.303 7.906-1.443 10.361-2.346 1.537-2.809 1.543-5.899.07-4.649-2.217-5.174-4.746-2.082-10.023 3.123-5.328 3.358-8.69.609-8.69-2.083 0-6.239 2.453-27.529 16.25-12.913 8.369-15.799 9.727-16.896 7.952-1.092-1.766 2.181-4.222 23.571-17.687 18.773-11.816 22.352-14.447 22.605-16.613.165-1.415-.285-3.051-1-3.636-1.507-1.231-32.687-2.132-34.467-.996-.8.51-.25 1.661 1.75 3.66 3.462 3.462 3.608 4.921.843 8.435-1.655 2.104-2.924 2.635-6.3 2.635-3.659 0-4.983.673-9.838 5-7.487 6.674-8.733 6.57-8.995-.75-.114-3.163-.085-8.277.063-11.365.401-8.31-3.151-11.159-8.584-6.885-3.484 2.74-8.717 2.632-10.716-.223-1.979-2.825-1.979-5.729 0-8.554q3.007-4.292 10.855.027c3.992 2.197 4.818 2.25 35.088 2.25h31l.296-6.75c.287-6.554.225-6.75-2.123-6.75-1.33 0-5.864-1.125-10.076-2.5-9.045-2.953-10.346-3.037-12.787-.828-1.599 1.447-4.152 1.638-19.078 1.423-14.045-.202-17.556-.54-18.982-1.827-1.53-1.379-1.75-3.618-1.75-17.801 0-13.2-.279-16.454-1.5-17.467-.825-.685-1.5-2.695-1.5-4.467 0-6.665 7.785-9.02 11.812-3.573 2.796 3.781 2.772 4.03-.812 8.54-2.994 3.767-3 3.802-3 17.078 0 7.481.423 13.565.966 13.901 1.275.788 30.036 1.196 30.035.426-.001-.327-.901-1.41-2.001-2.405-3.311-2.997-2.496-6.282 3-12.094 2.75-2.907 5-5.692 5-6.188s-1.76-1.429-3.912-2.073l-3.912-1.172-.338-10.98c-.323-10.492-.46-11.092-3.088-13.526-3.02-2.798-3.305-4.155-1.64-7.81 2.451-5.378 8.677-5.072 11.851.582 1.376 2.452 1.359 3.022-.179 5.986-.935 1.801-1.995 6.904-2.354 11.341-.811 10 .171 11.434 7.832 11.434 4.445 0 6.207-.687 13.428-5.235 8.666-5.458 9.56-6.892 6.89-11.05-.782-1.218-1.732-4.465-2.111-7.215s-1.539-6.97-2.578-9.377c-2.412-5.589-2.398-5.747.757-8.671q4.976-4.61 9.18-.138c2.993 3.187 2.724 6.296-.904 10.427-3.142 3.579-3.242 4.658-.981 10.603.734 1.931 1.788 2.515 5.108 2.832 5.054.482 8.513-.975 20.109-8.472 12.024-7.773 12.647-9.305 3.629-8.912-3.342.145-5.968-.336-7.573-1.388-2.17-1.422-2.389-2.113-1.868-5.911.735-5.362-.823-7.144-4.7-5.378-2.251 1.026-3.017.839-6.045-1.47-2.69-2.052-4.598-2.645-8.511-2.645-7.9 0-8.266-1.055-7.566-21.802.561-16.615.52-17.104-1.523-18.198-1.357-.726-7.303-1.023-16.8-.841-8.086.156-25.645-.095-39.021-.558l-24.321-.84-2.865 2.744c-3.538 3.39-7.683 3.597-10.184.509-3.186-3.935-1.791-9.31 2.878-11.086 2.016-.766 3.314-.534 6.052 1.081 3.737 2.205 6.959 2.374 65.26 3.416 11.825.212 22.288.701 23.25 1.087 1.58.634 1.75 2.537 1.75 19.62v18.918l2.565.975c3.515 1.336 3.667 1.307 7.856-1.536 2.747-1.864 4.771-2.444 7.853-2.25 4.556.286 5.499-1.022 4.268-5.926-.645-2.57-2.203-2.766-6.754-.849-1.185.499-2.493-.122-4.25-2.018-3.017-3.254-3.251-6.491-.64-8.853 1.636-1.482 1.996-3.82 2.614-17.008.394-8.409.41-16.256.035-17.437-.661-2.081-1.183-2.148-16.864-2.133l-16.183.014-9.788-10.264-9.789-10.265-26.666-.298c-26.311-.294-30.631-.842-28.345-3.596.91-1.096 5.719-1.179 43.53-.752l12.942.146 9.558 9.883 9.558 9.882 17.449.13c12.653.095 17.665.47 18.235 1.368.432.68.792 9.464.801 19.518.013 15.667.239 18.368 1.582 18.883.862.331 2.051.118 2.642-.473.724-.724 1.109-13.58 1.182-39.479.091-31.873.354-38.7 1.552-40.143 1.254-1.512 3.053-1.699 13.808-1.439 10.006.242 12.543.019 13.292-1.165 1.197-1.893 1.227-7.68.044-8.411-.502-.31-7.365-.808-15.25-1.106s-15.026-.745-15.868-.993c-1.766-.52-3.378.578-20.214 13.771-11.553 9.053-15.61 13.582-14.203 15.858 1.004 1.625-.535 4.675-3.262 6.462-2.499 1.637-2.802 1.633-5.985-.081-6.483-3.491-5.218-10.761 2.253-12.951 2.426-.711 8.407-4.688 14.865-9.883 5.944-4.781 12.78-10.051 15.192-11.71s4.385-3.455 4.385-3.99 1.237-1.515 2.75-2.176 5.972-3.978 9.909-7.371l7.159-6.169 13.841-.629c7.613-.346 14.966-.959 16.341-1.363 1.883-.554 3.571-2.909 6.843-9.548 6.625-13.446 10.14-12.423-43.289-12.601-40.633-.136-44.48-.005-46.049 1.564-.941.941-4.847 8.045-8.68 15.787-3.833 7.741-7.681 14.863-8.552 15.825-3.09 3.416-26.958 1.427-29.419-2.452-.453-.714-.83-4.736-.839-8.937-.02-10.115 1.516-12.208 9.108-12.408 2.958-.079 6.789-.895 8.516-1.815 3.796-2.024 7.197-1.063 9.686 2.736 2.179 3.324 2.138 3.647-.865 6.886-3.235 3.488-7.302 3.602-10.411.292-2.779-2.958-7.55-4.211-9.59-2.518-1.96 1.626-2.007 12.266-.061 13.881.907.753 4.82 1.059 11.153.872l9.755-.287 2.976-5.5C790.661 278.36 794 271.642 794 270.437c0-1.938-2.319-2.279-15.308-2.248-6.495.015-12.104-.268-12.465-.629s-.173-1.422.417-2.358c.986-1.563 5.316-1.718 52.965-1.896 28.54-.107 52.184-.22 52.543-.25.932-.08 2.848-5.925 2.848-8.686 0-1.613-.693-2.476-2.25-2.799-1.237-.256-13.822-.913-27.964-1.458-24.601-.949-26.009-.903-32.5 1.056-3.733 1.126-8.029 2.276-9.548 2.555-1.519.278-3.009.905-3.309 1.391-1.319 2.134-5.887.718-10.045-3.115-2.387-2.2-5.297-4-6.468-4-1.17 0-2.997-1.105-4.059-2.454-2.603-3.309-4.39-2.374-7.464 3.904-1.405 2.869-4.62 7.766-7.146 10.883-5.329 6.577-7.039 6.944-16.416 3.525-5.005-1.825-6.937-3.343-13.049-10.25-9.471-10.704-9.447-10.686-12.603-9.486-7.678 2.919-13.45 10.822-18.169 24.878-4.601 13.702-5.234 16.895-5.943 30-.825 15.245-1.801 18.433-11.481 37.5-3.071 6.05-5.583 11.675-5.582 12.5.002 1.903-4.608 12.965-8.128 19.5-1.481 2.75-5.425 10.496-8.763 17.213-6.724 13.528-9.637 16.372-14.501 14.156-4.799-2.187-5.612-.834-5.615 9.35-.006 22.998-1.352 49.884-2.58 51.558-1.068 1.456-2.708 1.679-10.59 1.439-11.263-.343-12.443-.656-13.206-3.499-.328-1.219-.304-13.13.051-26.467.604-22.648.769-24.25 2.488-24.25 1.736 0 1.84 1.359 1.84 23.941 0 13.168.384 24.178.852 24.468 1.998 1.235 13.283.991 14.084-.305.449-.727 1.113-12.185 1.476-25.463.362-13.277.897-25.767 1.188-27.755.769-5.245-1.336-7.014-7.396-6.215-2.587.342-5.898 1.455-7.358 2.475S621.539 401 620.742 401c-1.861 0-6.746-4.503-6.728-6.202.036-3.416 1.501-6.013 4.171-7.394 2.798-1.446 3.144-1.374 7.609 1.583 4.041 2.677 5.429 3.059 10.192 2.806 5.224-.278 5.499-.424 5.233-2.793-.624-5.564-2.37-9.861-5.214-12.838l-3-3.138.592-20.984c.572-20.251.519-21.077-1.502-23.647-2.76-3.509-2.643-5.212.592-8.588 3.17-3.309 5.685-3.561 8.045-.805 3.104 3.625 5.483 2.531 8.946-4.114 1.748-3.353 2.933-6.737 2.632-7.52-.441-1.15-3.058-1.369-13.678-1.144l-13.132.278-.619 7.5c-.341 4.125-.678 17.928-.75 30.672L624 367.845l-6.643 5.827c-3.654 3.206-8.328 7.412-10.388 9.349l-3.746 3.521-.073 8.82c-.077 9.283-.694 12.66-2.535 13.873-1.772 1.167-14.099.881-15.337-.357-2.296-2.296-.203-3.878 5.129-3.878 2.856 0 5.733-.54 6.393-1.2.733-.733 1.203-4.331 1.207-9.25.008-9.818.669-10.969 11.448-19.924 4.376-3.634 8.345-7.304 8.821-8.155s1.103-15.142 1.394-31.759c.291-16.616.966-31.03 1.501-32.031.888-1.661 2.401-1.798 17.417-1.58 15.2.221 16.553.094 17.896-1.681 2.454-3.244 1.781-6.273-2.234-10.044-6.188-5.812-7.82-6.676-10.204-5.401-1.148.615-2.473.879-2.944.588s-.765-3.707-.652-7.591c.113-3.883-.28-7.725-.874-8.537-.821-1.123-4.315-1.61-14.578-2.035-10.201-.422-13.779-.918-14.647-2.032-1.33-1.706-.671-50.257.703-51.751.446-.485 1.464-.632 2.262-.326 1.231.472 1.372 4.055.933 23.618-.37 16.432-.192 23.454.617 24.429.831 1.001 4.337 1.408 13.061 1.517 13.535.169 14.326-.183 16.078-7.15.581-2.313 2.004-6.309 3.162-8.88 2.414-5.363 1.987-7.543-1.624-8.295l-5.043-1.049-2.5-.519v-14.346c0-13.12.182-14.578 2.128-17.052 1.935-2.46 2.087-3.627 1.672-12.884-.486-10.881-1.723-14.68-4.78-14.68-1.093 0-6.529 4.61-12.714 10.784m-159.788-6.608c-.262.728-.598 4.694-.747 8.813-.207 5.726-.626 7.557-1.776 7.777-1.843.351-16.808-10.669-19.292-14.207-2.22-3.162-6.432-3.392-9.514-.52-2.881 2.683-2.775 6.466.266 9.506 2.786 2.787 5.717 3.158 7.545.955 1.815-2.186 3.755-1.856 7.856 1.337 6.706 5.221 16.019 11.163 17.496 11.163 1.127 0 1.618-2.115 2.146-9.25.9-12.169.48-16.143-1.751-16.566-.964-.182-1.967.264-2.229.992m11.995 1.803c-.333.539-.053 2.001.623 3.25.86 1.59 1.167 7.39 1.022 19.346-.198 16.372-.111 17.216 2.109 20.5 1.274 1.884 3.842 6.125 5.707 9.425s6.233 10.555 9.708 16.122 6.32 10.967 6.322 12c.005 2.792 3.561 8.105 5.928 8.856 3.171 1.007 8.068-2.912 8.068-6.457 0-2.972-5.292-8.577-7.064-7.481-1.772 1.095-4.93-1.679-8.32-7.307-1.9-3.153-6.705-11.294-10.679-18.09l-7.226-12.357.535-16.2c.585-17.717-.307-22.586-4.139-22.586-1.094 0-2.261.441-2.594.979M839.5 189c-1.034 1.674.465 3 3.392 3 3.427 0 4.436-.9 2.977-2.658-1.302-1.568-5.473-1.792-6.369-.342m19.541.45c-1.838 2.215.121 2.696 9.547 2.345 6.235-.232 7.912-.613 7.912-1.795 0-2.233-15.653-2.726-17.459-.55m-231.415 6.083c-.344.897-.626 11.433-.626 23.414 0 20.269-.139 21.96-2 24.326-2.786 3.541-2.548 7.15.635 9.654 3.219 2.533 5.507 2.623 8.167.323 3.429-2.964 3.567-5.658.479-9.328l-2.781-3.305v-23.043c0-20.47-.181-23.078-1.624-23.358-.893-.173-1.906.42-2.25 1.317m-196.95 7.125c-1.199 1.198-.72 4.061.906 5.41.87.722 2.332 2.882 3.25 4.8.917 1.918 2.231 3.67 2.918 3.893 1.715.556 1.618-4.153-.155-7.561-1.775-3.412-6.028-7.433-6.919-6.542m211.931 21.924c-1.862 4.852.083 8.418 4.593 8.418 3.486 0 3.777-2.82.732-7.096-2.29-3.216-4.397-3.739-5.325-1.322m138.605.668c-.569.688-1.809 3.192-2.758 5.565-2.171 5.436-1.02 6.991 3.327 4.496 3.045-1.748 3.136-1.738 5.657.631 1.951 1.833 2.562 3.396 2.562 6.558 0 3.046.616 4.73 2.314 6.326 2.995 2.813 3.846 2.76 14.358-.895 8.26-2.873 9.728-3.067 22.828-3.027 7.7.023 18.387.337 23.748.698l9.748.655-.644-6.378c-.354-3.509-1.017-7.391-1.473-8.629l-.829-2.25h-56.661l-3.345 2.468c-3.253 2.4-3.426 2.42-6.283.75-1.616-.945-3.345-2.47-3.843-3.39-2.434-4.497-6.549-6.188-8.706-3.578M465 227.985c0 1.092 1.431 4.354 3.18 7.25 3.578 5.925 14.817 23.453 18.421 28.731 1.635 2.393 2.046 3.786 1.329 4.5-.579.577-5.548 1.034-11.234 1.034-9.529 0-10.196.131-10.196 2 0 1.82.84 2.047 9.347 2.519 12.668.702 19.542-.046 19.947-2.172.174-.909-3.606-7.659-8.399-15s-10.49-16.272-12.662-19.847c-6.076-10.002-9.733-13.389-9.733-9.015m-15 9.515c0 7.673.184 8.5 1.893 8.5 1.041 0 2.184-.757 2.539-1.683.578-1.507.878-1.452 2.857.527 1.638 1.638 2.34 3.796 2.711 8.332.424 5.197.911 6.428 3.221 8.147 3.255 2.422 6.495 1.444 8.668-2.616 2.144-4.006.695-7.639-3.743-9.382-3.714-1.459-9.373-8.57-13.587-17.075-.886-1.787-2.274-3.25-3.085-3.25-1.183 0-1.474 1.677-1.474 8.5m139.346-2.96c-.393 1.025.675 4.351 2.676 8.333l3.331 6.627-.261 20.67c-.241 19.176-.128 20.74 1.574 21.646 1.467.781 24.952 1.8 30.084 1.305.688-.067 1.25-1.021 1.25-2.121 0-1.889-.667-2-12.066-2-6.675 0-12.961-.479-14.069-1.072-1.908-1.021-1.992-1.949-1.752-19.268.248-17.929.212-18.284-2.471-24.178-5.098-11.202-6.957-13.43-8.296-9.942m130.295 19.953c-.315.821-.585 17.232-.6 36.468-.025 32.257.108 35.047 1.716 35.893 2.743 1.444 71.015 2.336 73.606.962 1.175-.623 5.511-3.649 9.635-6.724C820.51 308.779 824.977 306 828.262 306c4.038 0 6.262-1.437 7.738-5.001 1.155-2.787 1.057-3.309-1.037-5.538-3.872-4.122-8.07-3.132-10.99 2.591-1.067 2.093-4.311 5.635-7.207 7.87-11.067 8.543-23.013 17.022-24.768 17.579-1.005.319-16.559.364-34.565.101-25.52-.373-32.92-.768-33.56-1.79-.452-.722-.536-16.499-.186-35.062.634-33.59.627-33.75-1.418-33.75-1.13 0-2.313.672-2.628 1.493m14.586 27.179c.231 15.059.506 17.828 1.773 17.828 1.205 0 1.603-2.067 2.025-10.5.769-15.362-.067-24.392-2.298-24.817-1.653-.316-1.755.878-1.5 17.489m145.062-4.289c-2.068 2.378-2.116 2.383-28.93 2.795-20.09.309-27.489.756-29.359 1.772-1.375.747-5.875 4.575-10 8.508s-10.955 10.189-15.178 13.904l-7.679 6.755-12.422-.368c-10.943-.325-12.754-.63-15.207-2.559-3.715-2.923-8.898-2.907-10.957.033-2.14 3.055-1.953 5.072.693 7.454 3.389 3.05 5.006 3.286 9.209 1.342 3.257-1.506 5.751-1.696 16.508-1.26l12.673.514 8.43-7.232c4.636-3.977 11.835-10.543 15.996-14.591 4.162-4.048 8.804-7.83 10.316-8.405 1.511-.575 9.356-1.047 17.433-1.049s20.459-.299 27.516-.658c11.909-.608 12.938-.82 14.333-2.947 1.439-2.197 1.077-6.391-.551-6.391-.414 0-1.685 1.072-2.824 2.383m-379.764 9.368c-2.736.208-5.544.85-6.24 1.427q-2.238 1.859 1.935 10.186c1.493 2.977 1.787 4.953 1.283 8.617-.599 4.355-.426 4.934 2.056 6.887 3.717 2.923 5.492 2.696 8.614-1.103 1.47-1.789 3.03-2.895 3.466-2.459s.704 3.808.595 7.493c-.216 7.301-1.494 9.256-5.546 8.482-2.603-.498-4.962 1.657-3.827 3.495.411.665 2.753 1.484 5.205 1.82 3.509.481 4.912.216 6.594-1.243 2.001-1.736 2.171-3.046 2.67-20.672.5-17.656.413-18.938-1.399-20.75-1.062-1.062-3.244-1.931-4.849-1.931s-3.518-.141-4.25-.313c-.733-.171-3.571-.143-6.307.064m29.11 5.322c-3.178 2.5-3.337 5.059-.546 8.833 1.978 2.677 2.062 3.732 1.592 20.067-.308 10.733-.918 17.664-1.614 18.36-.725.725-4.811 1.011-11.594.813-9.065-.264-10.561-.079-11.12 1.375-1.077 2.807 1.578 3.448 14.362 3.464 11.027.014 12.314-.172 13.241-1.904.568-1.06 1.091-9.447 1.169-18.75.149-17.596.696-20.817 3.922-23.076 4.24-2.97.992-11.255-4.412-11.255-1.301 0-3.551.933-5 2.073m-28.385-.395c-.687.269-1.25 1.663-1.25 3.098 0 1.867 1.598 4.132 5.619 7.964 3.09 2.946 5.87 5.105 6.177 4.797 1.2-1.199 1.135-13.349-.076-14.303-1.474-1.161-8.725-2.238-10.47-1.556m351.434 7.745c-3.376 2.017-5.184 3.768-5.184 5.022 0 1.807.878 1.928 14.453 1.99l14.453.065 2.332-3.45c4.042-5.979 3.235-6.538-9.571-6.638-10.924-.084-11.471.016-16.483 3.011M599 299.29c-3.322 1.674-3.671 5.172-.991 9.941 2.086 3.711 2.157 4.609 1.466 18.584l-.727 14.685-5.382 5c-5.343 4.963-6.326 6.789-4.324 8.026 1.374.849 11.598-7.929 13.484-11.576 1.105-2.137 1.474-6.573 1.474-17.712v-14.862l3-2.218c7.219-5.337.196-14-8-9.868M697.5 324c-.823 1.332.282 3 1.988 3 4.178 0 4.364 2.373 3.546 45.283-.267 14.005-.919 15.717-5.983 15.717-4.779 0-5.228-1.553-4.458-15.42.612-11.016.994-12.987 3.053-15.778 2.894-3.922 2.95-5.774.281-9.167-2.558-3.252-5.884-3.374-8.753-.321-2.69 2.864-2.751 5.594-.219 9.885 1.832 3.105 1.889 4.15.904 16.7-1.317 16.79-1.03 17.599 6.584 18.551 6.7.837 11.162.021 12.013-2.195.342-.893.902-15.695 1.243-32.894.49-24.693.35-31.596-.662-32.816-1.434-1.729-8.554-2.135-9.537-.545m-419.492 4.49c-.754.908.906 3.12 6.275 8.364 4.015 3.921 9.163 8.499 11.441 10.175 2.278 1.675 5.667 5.166 7.532 7.758 2.746 3.818 5.275 5.683 13.317 9.819 5.46 2.808 12.726 6.12 16.146 7.36 9.645 3.497 9.962 4.674 2.458 9.123-1.828 1.084-3.153 2.482-2.945 3.107.423 1.268 16.257 11.291 24.768 15.679 6.1 3.145 16.446 6.428 25.3 8.028 7.068 1.277 13.55 4.075 16.105 6.952 1.831 2.062 1.836 2.221.118 4.119-.983 1.086-2.604 2.234-3.604 2.552-.999.317-2.122 1.54-2.496 2.717-.515 1.621.019 2.718 2.199 4.521 7.174 5.934 14.891 10.145 22.378 12.212 5.009 1.383 21.1 7.904 27.917 11.315 5.898 2.95 16.736 13.108 19.257 18.049 1.115 2.186 2.698 6.267 3.518 9.067.819 2.801 2.588 6.257 3.93 7.68 3.573 3.789 2.33 5.909-3.479 5.93-2.554.01-7.568.633-11.143 1.384-19.055 4.006-34.766 2.635-55.874-4.877-8.328-2.963-20.655-8.952-21.611-10.499-.814-1.317-6.204-1.337-7.015-.025-1.06 1.716-3.276 1.118-8.731-2.356-7.88-5.018-20.121-10.644-23.159-10.644-1.474 0-3.787.725-5.14 1.612-2.303 1.508-3.052 1.445-11.715-.991-5.09-1.431-12.603-3.067-16.696-3.635-10.53-1.462-10.735-1.156-8.072 12.102 3.206 15.96 5.848 24.917 9.005 30.532 3.904 6.943 2.905 8.217-9.722 12.39-8.906 2.943-11.405 3.306-28.27 4.105-10.175.482-19.805 1.328-21.399 1.881S244.73 525 243.542 525s-3.006.619-4.041 1.375c-1.746 1.277-1.784 1.775-.539 6.965 1.066 4.446 1.088 5.895.106 7.079-1.246 1.501-8.312 3.811-15.423 5.043-7.729 1.339-16.615 4.653-21.759 8.115-4.634 3.118-20.413 9.218-28.101 10.863-5.188 1.11.262 5.56 6.809 5.56 3.694 0 17.144 6.566 17.713 8.648.279 1.018.782 3.087 1.118 4.597.938 4.217 12.291 9.166 24.498 10.678 15.007 1.86 18.062 5 12.007 12.346-4.934 5.986-3.992 7.707 6.07 11.083 5.37 1.802 12.202 3.177 18.553 3.734 5.529.485 11.829 1.502 14 2.26 3.604 1.258 3.947 1.689 3.947 4.954 0 1.967.488 4.07 1.085 4.674.597.603 7.347 1.524 15 2.046s15.291 1.349 16.973 1.839c7.489 2.182 12.282 6.118 14.802 12.155 2.052 4.914.729 8.095-9.358 22.495-15.251 21.772-22.939 31.348-26.813 33.402-1.545.818-2.207 1.947-2 3.407.283 1.985 1.077 2.241 8.811 2.84 4.675.362 13 .419 18.5.127 8.954-.477 10.437-.303 14.181 1.656l4.181 2.189 7.798-4.565c4.289-2.511 8.771-4.565 9.96-4.565s4.34 1.8 7.003 4c2.869 2.371 5.866 3.989 7.359 3.974 3.629-.038 9.337-2.938 13.728-6.974 6.563-6.033 12.546-10.446 19.79-14.599 9.274-5.317 11.962-6.401 15.869-6.401 4.743 0 24.71-7 35.631-12.491 6.424-3.23 16.515-7.044 23.566-8.906 16.501-4.36 23.332.24 22.095 14.878-1.37 16.212-9.08 34.157-26.476 61.627-2.302 3.634-4.185 7.583-4.185 8.774 0 1.516 1.951 3.582 6.5 6.881 3.575 2.592 6.5 5.225 6.5 5.85 0 .626-1.612 4.674-3.582 8.997-3.017 6.622-3.488 8.572-2.986 12.375.955 7.226.889 8.295-.765 12.515-4.242 10.82-9.4 26.434-8.898 26.935 2.171 2.172 8.872-2.136 18.922-12.167 3.578-3.571 4.692-4.141 7.132-3.653 2.635.527 3.418-.072 8.848-6.769 3.276-4.04 7.58-10.046 9.564-13.346 3.89-6.469 10.811-14.5 12.496-14.5.571 0 2.848 1.864 5.06 4.143 2.53 2.606 4.583 3.927 5.536 3.562 3.546-1.361 20.673-31.829 20.673-36.776 0-3.43 6.508-17.21 13.231-28.015 5.642-9.067 14.265-18.914 16.563-18.914 1.952 0 12.207 8.229 13.427 10.774 2.534 5.288 4.834 3.621 10.374-7.519 4.292-8.631 5.376-11.995 6.875-21.348 2.053-12.802 4.736-20.237 13.928-38.592 3.631-7.251 6.602-13.612 6.602-14.135 0-1.716 3.132-11.612 4.705-14.864 1.432-2.964 1.398-3.415-.492-6.5-1.117-1.824-4.835-8.716-8.261-15.316s-7.257-13.963-8.512-16.363c-3.034-5.801-6.614-9.407-14.44-14.55-20.174-13.257-42.783-18.718-68.751-16.607-6.07.493-13.991 1.867-17.835 3.093-18.085 5.768-34.478 20.322-43.844 38.927-1.523 3.025-3.399 6.159-4.17 6.964-1.213 1.269-1.4 1.016-1.4-1.89 0-3.743 9.588-22.905 14.354-28.687 4.559-5.531 15.635-13.813 21.942-16.409 6.662-2.741 8.6-4.482 6.89-6.192-1.081-1.081-3.623-.523-15.186 3.329-1.375.458-5.65 1.484-9.5 2.279-6.714 1.388-14.882 5.013-35.5 15.757-5.225 2.723-12.425 6.022-16 7.331s-8.989 3.488-12.032 4.84c-10.504 4.67-42.492 11.666-66.968 14.646-22.686 2.762-66.141-1.161-61.729-5.572.351-.351 7.377-.054 15.614.66 20.375 1.765 45.336-.134 71.115-5.411 9.999-2.047 15.702-3.492 17.784-4.506.944-.46 6.666-2.437 12.716-4.392 9.524-3.078 27.923-10.252 32.5-12.672.825-.436 1.5-1.419 1.5-2.184 0-.981-1.917-1.577-6.5-2.021-11.417-1.105-30-8.247-30-11.529 0-1.883 1.208-1.7 8.192 1.24 15.56 6.549 34.588 6.518 54.123-.088 25.898-8.757 27.291-9.095 45.685-11.065 13.813-1.479 28.601-1.239 43 .696 9.9 1.331 30.525 8.38 35.144 12.011 2.004 1.576 4.142 2.865 4.75 2.865 1.849 0 1.237-4.564-.992-7.398-1.154-1.467-4.212-6.815-6.795-11.885s-6.926-12.667-9.652-16.884-8.686-13.668-13.247-21c-8.927-14.355-18.298-27.645-28.378-40.245a2976 2976 0 0 1-10.737-13.5c-5.914-7.501-34.15-35.492-41.376-41.017-13.979-10.69-26.092-18.438-37.717-24.126-6.875-3.365-13.711-6.763-15.192-7.553-2.502-1.335-13.04-5.272-27.308-10.203-3.3-1.14-11.393-3.488-17.985-5.217-6.592-1.73-12.35-3.37-12.795-3.645-.852-.527-33.842-6.448-49.22-8.835-4.95-.768-12.15-2.056-16-2.862-9.586-2.007-34.118-2.795-35.492-1.14m570.386-.744c-1.734 1.182-2.783 113.687-1.073 115.105.703.584 5.469 1.138 10.59 1.231l9.311.17 4.639-4.684 4.639-4.684-2.65-2.192c-1.457-1.206-2.813-3.087-3.011-4.181-.199-1.093-1.032-2.076-1.85-2.183-6.331-.829-9.135-1.617-10.457-2.939-1.31-1.31-1.532-6.017-1.532-32.501v-30.97l3.101-5.959c3.183-6.115 5.294-7.442 6.382-4.013.388 1.223-.314 3.358-1.891 5.75l-2.508 3.804-.274 29.39c-.318 34.063-1.121 31.612 10.714 32.689l6.976.634 5.597-4.922c3.079-2.707 7.129-5.529 9-6.271 3.512-1.392 6.903-3.839 6.903-4.98 0-.357-1.526-2.316-3.392-4.352l-3.392-3.703.534-10.469c.669-13.093.394-13.516-8.765-13.516-5.432 0-6.899.334-7.419 1.688-.356.929-.658 7.468-.67 14.531-.021 12.34.079 12.962 2.541 15.889 3.242 3.852 3.212 4.396-.43 8.039-2.254 2.254-3.549 2.83-5.25 2.336-2.763-.804-5.757-4.117-5.757-6.371 0-.917.788-2.78 1.75-4.139 1.421-2.009 1.85-5.429 2.285-18.208.365-10.73.938-16.137 1.801-17 .823-.822 4.251-1.265 9.795-1.265 7.289 0 8.736-.282 9.949-1.941 2.156-2.948 1.773-4.618-2.608-11.36-2.992-4.606-4.613-6.199-6.306-6.199-1.253 0-5.086-.949-8.519-2.108-8.121-2.742-9.436-4.732-8.989-13.606l.342-6.786-9.5-.254c-5.225-.14-9.998.085-10.606.5m-131.748 25.706c-3.31 3.068-3.326 5.083-.077 9.864 1.912 2.814 2.408 4.511 1.941 6.637-.402 1.83-.17 3.139.644 3.642.7.433 13.951.666 29.447.52l28.175-.266 3.147 3.075c3.699 3.617 4.925 3.77 8.383 1.05 4.025-3.166 4.333-5.697 1.104-9.068-3.106-3.242-4.991-3.588-8.014-1.471-1.633 1.144-7.716 1.499-29.952 1.75-26.088.295-27.925.199-28.252-1.463-.192-.978 1.036-3.356 2.729-5.285 3.848-4.383 3.849-5.612.002-8.848-3.836-3.228-5.908-3.259-9.277-.137m189.243-.702c-5.66 6.972-5.881 7.698-6.45 21.126-.312 7.36-.156 13.181.362 13.501.501.309 3.438.645 6.527.746 5.255.172 5.89-.069 9.894-3.751 2.353-2.163 5.853-4.558 7.778-5.322 5.136-2.036 17.039-11.864 18.118-14.959.549-1.574 2.152-3.132 3.904-3.793 3.155-1.191 4.831-3.845 3.358-5.318-.487-.487-3.134-.552-5.883-.145-4.879.722-4.991.815-4.743 3.952.139 1.767-.201 3.213-.757 3.213s-1.988 1.125-3.184 2.5c-3.753 4.317-10.07 2.739-11.287-2.82-.263-1.199-.601-3.51-.752-5.135-.259-2.795-.625-3.021-6.774-4.188-8.563-1.625-8.469-1.629-10.111.393m-393.139 3.33c-2.294 1.336-2.215 3.189.229 5.401 1.913 1.731 2.047 1.711 3.967-.595 2.499-3 2.513-3.57.12-4.851-2.302-1.232-2.12-1.234-4.316.045m160.712 21.356c-.789 1.89-2.56 5.093-3.934 7.118-2.767 4.077-2.498 6.036.6 4.378 2.691-1.44 7.872-9.752 7.872-12.628 0-3.529-2.892-2.808-4.538 1.132m227.288 15.256c-.962.25-1.75 1.287-1.75 2.305 0 2.349 4.454 7.695 7.116 8.54 2.352.746 5.884-1.956 5.884-4.503 0-2.057-3.597-6.034-5.457-6.034-.759 0-1.979-.172-2.711-.381-.733-.21-2.12-.177-3.082.073m-191.576 10.622c-2.848 3.033-2.752 6.199.281 9.231 3.264 3.265 6.163 3.096 9.358-.545l2.632-3H757.6c29.181 0 36.372.261 37.279 1.354 1.668 2.01.775 24.604-1.02 25.794-.747.496-4.959.674-9.359.397-4.4-.278-21.05-.767-37-1.089s-29.788-.81-30.75-1.087c-1.221-.352-1.75-1.523-1.75-3.877 0-1.856.375-3.605.832-3.888.458-.283 10.579-1.011 22.49-1.618l21.658-1.103 3.446 2.628c2.976 2.271 3.76 2.465 5.76 1.43 6.383-3.304 7.582-7.405 3.179-10.868-3.34-2.628-5.751-2.616-10.065.05-3.128 1.934-5.42 2.184-25.618 2.794-14.281.431-22.963 1.101-24.373 1.88-2.033 1.123-2.151 1.737-1.628 8.457.322 4.144 1.168 7.888 1.976 8.746 1.203 1.278 7.627 1.544 43.319 1.794 41.212.289 41.925.26 42.991-1.732.684-1.278.982-7.847.808-17.794L799.5 405.5l-24-.632c-13.2-.348-30.75-.758-39-.912-10.006-.186-15.899-.724-17.7-1.617-3.964-1.965-7.168-1.64-9.626.975m-35.617 1.909c-1.196 1.707-1.562 5.01-1.579 14.25-.019 10.396-.288 12.366-1.978 14.527-2.63 3.362-2.494 6.175.452 9.354 3.053 3.294 5.499 3.348 8.902.194 3.374-3.127 3.367-6.538-.022-10.565-2.548-3.028-2.658-3.626-2.442-13.304.146-6.526.651-10.403 1.418-10.891 1.528-.971 11.838-.989 13.314-.023.616.404 1.433 5.01 1.815 10.235.653 8.945.546 9.777-1.842 14.246-2.697 5.051-2.573 6.836.728 10.504 2.635 2.927 4.821 2.841 8.6-.339 3.858-3.246 3.875-5.432.077-9.758-2.984-3.399-3-3.481-3-15.675 0-15.16.228-14.902-13.193-14.946-8.902-.029-9.821.149-11.25 2.191m-19.968 1.961c-.265 1.274-.772 13.465-1.125 27.092-.495 19.061-.99 25.472-2.15 27.796-1.925 3.858-1.065 7.265 2.209 8.757 4.696 2.139 7.356 1.492 9.127-2.221 1.581-3.316 1.554-3.473-1.207-7.094l-2.824-3.702-.059-26.139c-.055-23.863-.209-26.169-1.774-26.473-1.13-.219-1.879.457-2.197 1.984M584 417c-1.1 1.1-2 3.258-2 4.796 0 1.983-2.182 5.514-7.5 12.138-7.621 9.491-8.205 10.512-6.59 11.51 1.715 1.061 3.599-.498 9.59-7.935 4.471-5.55 6.909-7.708 9.565-8.467 3.654-1.045 7.141-4.141 8.276-7.348.859-2.427-3.472-6.694-6.796-6.694-1.4 0-3.445.9-4.545 2m124.073 32.635c-2.553 3.246-2.582 4.479-.195 8.404 1.768 2.908 1.856 5.334 1.519 41.774-.197 21.278-.596 42.106-.888 46.285l-.53 7.598 8.57 9.402C729.57 577.382 732 579.239 732 574.902c0-1.294-3.639-5.853-9.51-11.912l-9.51-9.815.574-43.838c.315-24.11.776-44.84 1.024-46.067.247-1.226 1.757-3.567 3.355-5.201 3.297-3.373 3.193-6.433-.316-9.297-3.164-2.582-7.116-2.225-9.544.863m25.693-.828c-2.315.445-2.498 1.462-3.739 20.693-.604 9.35-1.519 22.625-2.034 29.5-2.541 33.883-2.536 34.611.309 40.827 10.817 23.637 10.647 23.177 9.61 25.904-2.302 6.055 4.392 12.265 9.566 8.875 5.275-3.456 4.464-9.278-1.804-12.951-3.445-2.019-4.66-3.569-6.521-8.318-1.258-3.21-3.678-8.842-5.379-12.516l-3.092-6.679.681-13.821c1.14-23.141 4.406-65.423 5.107-66.124.287-.287 8.158-.568 17.492-.626 11.998-.074 17.333-.466 18.205-1.338.774-.774.879-1.57.283-2.139-.891-.849-35.054-1.987-38.684-1.287m-137.773 7.046c-3.828 3.828-3.765 5.428.411 10.305 3.752 4.384 7.042 12.788 5.579 14.256-.5.502-3.033.833-5.628.735-4.945-.187-7.074 1.28-5.175 3.567 1.249 1.506 13.524 1.757 15.791.323 1.253-.792 1.282-1.569.197-5.235-3.361-11.359-3.463-12.614-1.247-15.43 2.642-3.36 2.613-4.675-.171-7.737-3.654-4.02-6.308-4.233-9.757-.784m25.694 15.952c-3.297 3.441-3.41 6.167-.373 9.021 2.855 2.682 5.994 2.762 10.068.257 2.484-1.528 4.697-1.871 10.883-1.686 4.27.128 8.179.653 8.686 1.168 1.212 1.23 1.619 29.265.442 30.442-1.381 1.381-2.604.164-8.169-8.131-2.813-4.193-5.851-8.36-6.75-9.259-1.789-1.789-3.474-1.329-3.474.947 0 1.488 6.148 10.755 13.558 20.436 2.316 3.025 4.728 6.513 5.361 7.75 1.371 2.679 3.777 2.955 4.366.5.23-.962.527-11.2.659-22.75l.241-21-2.41-2.253c-2.034-1.901-3.865-2.334-11.721-2.77-8.026-.445-9.718-.858-12.259-2.996-3.803-3.2-5.8-3.129-9.108.324m-20.937 24.92c-.962.232-1.75 1.258-1.75 2.281 0 2.37 1.422 2.691 12.98 2.927 5.775.118 9.754.636 10.18 1.325.384.622-.169 2.351-1.231 3.841-2.708 3.804-2.454 7.343.706 9.828 3.529 2.777 5.474 2.613 8.678-.732 3.063-3.197 3.448-6.322 1.024-8.323-.914-.754-2.522-3.311-3.573-5.681-1.05-2.371-2.44-4.471-3.087-4.668-1.923-.584-22.028-1.255-23.927-.798m266.606 39.457c-1.702 2.652-3.356 6.069-3.356 6.932 0 .487 5.443.886 12.096.886 9.416 0 12.711-.363 14.872-1.64 3.565-2.106 7.724-1.13 9.225 2.165.913 2.003.769 3.13-.761 5.972-2.204 4.092-4.087 4.356-8.709 1.219-3.139-2.13-4.522-2.301-20.468-2.529-9.406-.135-17.338.139-17.628.608s-.841 8.981-1.225 18.915l-.698 18.061 2.235.71c1.229.39 3.714.432 5.521.092l3.287-.616 1.047-8.205c1.464-11.465 1.209-11.324 21.899-12.155 9.244-.371 21.082-1.109 26.307-1.639s14.176-1.162 19.892-1.403c14.675-.62 15.853-2.443 4.513-6.982-4.955-1.984-9.471-2.861-18.022-3.499-6.317-.472-12.074-1.402-12.897-2.085-1.897-1.575-1.892-3.407.014-4.989 1.82-1.51 1.977-4.928.25-5.417l-7.276-2.059c-3.448-.976-10.294-1.798-16-1.922-5.486-.12-10.716-.56-11.623-.978-1.007-.464-1.978-.247-2.495.558M764.2 537.2c-.714.714-1.2 4.156-1.2 8.5 0 6.375.229 7.3 1.808 7.3.995 0 3.132-1.843 4.75-4.096s4.179-5.575 5.692-7.382 2.75-3.789 2.75-4.404c0-1.544-12.247-1.471-13.8.082m71.322.765c-1.052 1.701-1.6 50.869-.575 51.502 1.053.651 9.398-.444 11.018-1.446.865-.534 1.163-5.978 1.08-19.724-.064-10.667.328-20.149.896-21.641.887-2.335 1.557-2.656 5.534-2.656 4.925 0 5.884-1.472 2.775-4.259-2.314-2.074-19.627-3.558-20.728-1.776m90.978 30.106c-4.95.427-12.375.852-16.5.944s-9.3.534-11.5.982-9.301 1.127-15.779 1.509c-7.66.452-12.245 1.161-13.112 2.028-1.757 1.757-3.04 11.435-1.695 12.78.696.696 2.295.64 5.012-.174 4.61-1.381 5.725-2.651 4.074-4.64-.645-.777-.925-1.812-.623-2.3.301-.489 7.203-1.654 15.336-2.589 18.3-2.104 26.644-3.29 36.31-5.157 4.137-.8 8.862-1.461 10.5-1.469 2.755-.014 7.223-1.846 4.977-2.041-6.482-.561-9.271-.54-17 .127M822 581c-.825.533-2.947.976-4.715.985-4.6.022-5.404 2.274-5.07 14.203l.285 10.189 3.406.881c4.018 1.038 8.094.238 8.094-1.59 0-.712-1.35-2.587-3-4.168-4.92-4.714-3.879-7.401 3.647-9.413 2.281-.61 4.419-1.816 4.75-2.68.775-2.018.773-5.801-.004-7.825-.675-1.759-5.04-2.102-7.393-.582m-25.5 3.641c-8.227 1.061-9.5 1.484-9.483 3.154.01.938 1.135 2.765 2.5 4.06 3.067 2.908 3.07 3.294.055 6.877-1.51 1.795-2.125 3.373-1.628 4.178.879 1.421 17.715 3.763 18.859 2.623.384-.382.697-5.271.697-10.864V584.5l-4-.123c-2.2-.067-5.35.052-7 .264m-21 3.539c-1.65.493-6.538 1.278-10.863 1.744-6.397.689-8.331 1.315-10.373 3.358-1.381 1.38-2.232 2.961-1.891 3.512.34.551 3.883 1.329 7.873 1.728 3.99.398 8.235 1.096 9.434 1.55 2.401.909 7.32-2.13 7.32-4.522 0-.718.675-1.865 1.5-2.55 1.572-1.304 2.036-4.584.75-5.299-.413-.229-2.1-.014-3.75.479m-132.25 19.809c-1.788 1.09-3.243 2.551-3.235 3.246.009.696 2.267 5.722 5.018 11.17 6.423 12.717 15.572 35.743 19.308 48.595.88 3.025 2.463 8.425 3.518 12C675.841 710.043 683 752.243 683 772.254c0 2.977.284 5.697.631 6.044 1.193 1.192 4.096-1.224 5.419-4.51.729-1.808 3.043-6.041 5.143-9.405 5.923-9.488 6.229-10.983 4.325-21.099-.909-4.831-3.029-14.184-4.71-20.784s-3.422-13.826-3.867-16.058-1.252-5.157-1.794-6.5-2.2-6.492-3.685-11.442c-3.678-12.261-11.938-34.591-15.717-42.488-1.707-3.568-4.08-9.28-5.273-12.694-1.193-3.413-2.912-7.34-3.82-8.727-.909-1.386-1.652-2.998-1.652-3.581s-1.581-4.199-3.513-8.035c-3.926-7.797-5.489-8.49-11.237-4.986" fill-rule="evenodd" style="fill: inherit;"/></svg>